

<svg version="1.1" id="레이어_1" xmlns="http://www.w3.org/2000/svg" xmlns:xlink="http://www.w3.org/1999/xlink" x="0px" y="0px" viewBox="0 0 923.0769043 303.8581238" style="enable-background:new 0 0 923.0769043 303.8581238" xml:space="preserve">
<path style="fill:#EA4335" d="M395.0223999,159.9055023c0,43.7164154-34.1994324,75.9302979-76.1699219,75.9302979
	s-76.1699371-32.2138824-76.1699371-75.9302979c0-44.0245132,34.1994476-75.9302979,76.1699371-75.9302979
	S395.0223999,115.8809891,395.0223999,159.9055023z M361.6788025,159.9055023
	c0-27.3184662-19.8212891-46.0100555-42.8263245-46.0100555s-42.826355,18.6915894-42.826355,46.0100555
	c0,27.0446167,19.8213196,46.0100555,42.826355,46.0100555S361.6788025,186.9158783,361.6788025,159.9055023z"></path>
<path style="fill:#FBBC05" d="M559.3440552,159.9055023c0,43.7164154-34.1994629,75.9302979-76.1699219,75.9302979
	s-76.1699524-32.2138824-76.1699524-75.9302979c0-43.9902649,34.1994629-75.9302979,76.1699524-75.9302979
	S559.3440552,115.8809891,559.3440552,159.9055023z M526.0004272,159.9055023
	c0-27.3184662-19.8212585-46.0100555-42.8262939-46.0100555s-42.8263245,18.6915894-42.8263245,46.0100555
	c0,27.0446167,19.8212891,46.0100555,42.8263245,46.0100555S526.0004272,186.9158783,526.0004272,159.9055023z"></path>
<path style="fill:#4285F4" d="M716.8189697,88.5625229v136.318512c0,56.0747375-33.0697632,78.9770813-72.1646118,78.9770813
	c-36.8012085,0-58.9503784-24.6140137-67.3034058-44.7434082l29.0301514-12.0844879
	c5.1692505,12.3583527,17.8357544,26.9419098,38.2390137,26.9419098c25.0247803,0,40.5326538-15.4393921,40.5326538-44.5037689
	V218.547821h-1.1639404c-7.4628906,9.2088623-21.8411255,17.2537689-39.9849243,17.2537689
	c-37.9651489,0-72.746521-33.0697327-72.746521-75.6221924c0-42.8605728,34.7813721-76.2041702,72.746521-76.2041702
	c18.1096191,0,32.487793,8.0449142,39.9849243,16.9799042h1.1639404V88.5967712h31.6661377L716.8189697,88.5625229z
	 M687.5149536,160.1793823c0-26.7365112-17.8357544-46.2839355-40.5326538-46.2839355
	c-23.0050659,0-42.2786255,19.5474243-42.2786255,46.2839355c0,26.4626312,19.2735596,45.7361908,42.2786255,45.7361908
	C669.6792603,205.9155731,687.5149536,186.6420135,687.5149536,160.1793823z"></path>
<path style="fill:#34A853" d="M769.0253296,8.6611204v222.5189056h-32.5219727V8.6611166L769.0253296,8.6611204z"></path>
<path style="fill:#EA4335" d="M895.7584229,184.8960876l25.8806152,17.2537689
	c-8.3530273,12.3583679-28.4824219,33.6517029-63.2637939,33.6517029c-43.1344604,0-75.3483276-33.3435974-75.3483276-75.9302979
	c0-45.154213,32.487793-75.9302979,71.6168823-75.9302979c39.4029541,0,58.6765137,31.3580475,64.9754639,48.3037262
	l3.4576416,8.6268921l-101.5028076,42.0389404c7.7710571,15.2339935,19.8555298,23.0050354,36.8012085,23.0050354
	c16.9799194,0,28.7562866-8.3530121,37.3832397-21.0194702H895.7584229z M816.0966187,157.5776062l67.8511353-28.1743011
	c-3.7314453-9.4827347-14.960083-16.0898361-28.1743164-16.0898361
	C838.8278198,113.3134689,815.2407837,128.2735748,816.0966187,157.5776062z"></path>
<path style="fill:#4285F4" d="M119.5782394,140.1526642v-32.2138824h108.554985
	c1.0612335,5.6143188,1.6089935,12.255661,1.6089935,19.444725c0,24.1689835-6.6071014,54.054985-27.9004517,75.3483353
	c-20.71138,21.5672302-47.1740112,33.0697479-82.2293015,33.0697479C54.6369476,235.8015594,0,182.876297,0,117.9007797
	S54.6369476,0,119.6124649,0c35.9453659,0,61.5521469,14.1042747,80.791481,32.4877586l-22.7311554,22.7311592
	c-13.7961731-12.9403267-32.4877472-23.0050278-58.0945511-23.0050278c-47.4478836,0-84.5571899,38.2390213-84.5571899,85.6869049
	s37.1093063,85.686882,84.5571899,85.686882c30.7760696,0,48.3037186-12.3583527,59.5323563-23.5869904
	c9.1061554-9.1061554,15.0970612-22.1149597,17.4591675-39.8822479L119.5782394,140.1526642z"></path>
<g>
</g>
<g>
</g>
<g>
</g>
<g>
</g>
<g>
</g>
<g>
</g>
</svg>
